<?xml version="1.0" standalone="no"?>
<!DOCTYPE svg PUBLIC "-//W3C//DTD SVG 20010904//EN"
 "http://www.w3.org/TR/2001/REC-SVG-20010904/DTD/svg10.dtd">
<svg version="1.0" xmlns="http://www.w3.org/2000/svg"
 width="200.000000pt" height="200.000000pt" viewBox="0 0 200.000000 200.000000"
 preserveAspectRatio="xMidYMid meet">
<metadata>
Created by potrace 1.14, written by Peter Selinger 2001-2017
</metadata>
<g transform="translate(0.000000,200.000000) scale(0.100000,-0.100000)"
fill="#000000" stroke="none">
<path d="M884 1821 c-64 -21 -129 -60 -173 -103 -33 -32 -36 -33 -110 -30 -41
2 -101 -1 -133 -8 -53 -10 -60 -9 -86 10 -58 43 -157 22 -206 -43 -33 -44 -29
-131 7 -178 20 -26 27 -47 27 -79 0 -79 55 -242 103 -305 14 -18 11 -26 -29
-100 -99 -183 -96 -356 9 -456 68 -65 144 -91 279 -94 l106 -2 44 -38 c24 -20
67 -49 96 -63 28 -14 52 -33 52 -41 0 -8 11 -33 25 -56 24 -43 79 -75 125 -75
36 0 97 31 118 59 20 28 46 101 35 101 -4 0 18 17 48 38 30 21 63 46 75 56 16
14 41 18 120 20 134 3 214 30 281 94 109 104 114 250 16 448 l-45 91 30 49
c43 70 83 194 83 262 1 42 6 60 19 69 26 18 50 76 50 121 0 66 -62 135 -131
145 -31 5 -89 -11 -112 -31 -14 -13 -25 -14 -64 -5 -25 6 -86 10 -135 9 l-90
-1 -41 38 c-23 21 -74 54 -114 74 -62 31 -84 36 -150 38 -53 2 -95 -3 -129
-14z m213 -57 c49 -16 143 -73 143 -86 0 -5 -7 -8 -16 -8 -9 0 -64 -16 -122
-35 l-105 -36 -86 30 c-47 16 -103 33 -124 36 -31 6 -36 10 -26 22 17 20 97
66 139 79 52 17 142 16 197 -2z m-729 -138 c28 -27 34 -72 16 -108 -43 -85
-174 -53 -174 42 0 88 95 128 158 66z m1367 20 c61 -26 76 -102 29 -150 -50
-49 -131 -29 -154 38 -16 49 10 101 60 119 23 8 28 8 65 -7z m-1108 -15 c2 -1
-13 -26 -32 -56 -45 -69 -92 -188 -110 -272 -9 -41 -23 -75 -38 -92 -13 -14
-37 -41 -52 -58 -16 -18 -31 -33 -35 -33 -9 0 -66 125 -79 175 -6 22 -11 56
-11 76 0 36 1 37 44 41 85 10 140 74 138 160 -1 47 -1 47 36 53 20 4 41 8 46
9 8 2 88 -1 93 -3z m878 -5 l45 -7 -1 -49 c-2 -85 51 -148 134 -157 l45 -5 -4
-44 c-1 -25 -8 -61 -15 -82 -16 -51 -71 -162 -80 -162 -4 0 -14 9 -22 20 -8
11 -30 38 -50 59 -22 24 -38 53 -42 77 -18 98 -77 246 -128 318 -30 43 -5 50
118 32z m-597 -55 c8 -4 -19 -24 -72 -54 -76 -42 -230 -149 -265 -184 -23 -24
-24 -7 -1 59 25 74 84 183 115 214 l22 22 94 -25 c52 -14 100 -28 107 -32z
m434 -11 c37 -55 98 -195 98 -224 0 -10 -29 7 -82 48 -46 35 -127 89 -181 121
-68 40 -94 61 -85 66 26 15 163 48 188 46 18 -1 35 -17 62 -57z m-252 -71 c88
-48 222 -137 266 -176 17 -15 48 -43 69 -62 47 -41 55 -76 50 -226 l-3 -109
-44 -41 c-110 -101 -223 -180 -353 -247 l-82 -42 -104 58 c-111 62 -234 148
-312 218 -43 39 -49 49 -56 100 -4 31 -6 99 -4 150 l3 93 67 63 c38 34 101 85
141 113 83 58 249 149 272 149 8 0 49 -19 90 -41z m500 -426 c0 -7 -12 -27
-28 -44 l-27 -31 0 75 0 75 27 -31 c15 -18 27 -38 28 -44z m-1131 -3 c0 -38
-1 -70 -4 -70 -2 0 -16 16 -31 35 l-26 35 23 35 c13 19 27 35 31 35 3 0 6 -31
7 -70z m-31 -128 c29 -35 52 -72 52 -82 0 -42 62 -209 105 -284 l45 -79 -84 5
c-132 8 -224 60 -263 148 -11 26 -14 57 -10 116 4 68 11 95 46 169 23 50 45
85 50 79 4 -5 31 -37 59 -72z m1247 -6 c98 -214 49 -367 -134 -420 -50 -15
-171 -23 -171 -11 0 2 13 25 30 51 41 65 85 175 106 264 15 63 26 84 66 129
26 30 48 59 48 64 0 23 26 -13 55 -77z m-952 -248 c45 -30 106 -68 134 -84 29
-16 53 -32 53 -35 0 -7 -132 -47 -181 -55 -33 -5 -36 -3 -75 58 -43 65 -87
162 -99 219 l-7 33 46 -41 c25 -22 83 -65 129 -95z m703 64 c-27 -79 -57 -140
-98 -200 -29 -42 -32 -43 -67 -37 -56 10 -181 47 -181 54 0 3 36 26 80 50 44
25 126 80 183 122 56 43 103 78 104 79 1 0 -9 -30 -21 -68z m-226 -283 l44
-11 -34 -29 c-19 -16 -39 -29 -43 -29 -4 0 -22 14 -40 30 -67 63 -157 60 -218
-9 -20 -23 -40 -41 -43 -41 -12 0 -118 71 -113 76 2 3 32 12 66 20 34 9 88 26
119 38 l57 22 80 -28 c44 -15 100 -33 125 -39z m-129 -66 c57 -34 57 -122 0
-156 -62 -37 -135 -4 -142 63 -4 36 3 53 30 81 34 33 69 37 112 12z"/>
<path d="M955 1290 c-115 -22 -196 -127 -189 -242 11 -164 185 -265 332 -192
88 44 141 140 128 231 -18 135 -142 227 -271 203z m120 -72 c122 -63 126 -239
7 -306 -155 -87 -326 91 -232 242 46 75 147 104 225 64z"/>
</g>
</svg>
